<mxfile host="65bd71144e">
    <diagram id="rFD6s7p5Gp0dikTEiKM0" name="Page-1">
        <mxGraphModel dx="1825" dy="3187" grid="1" gridSize="10" guides="1" tooltips="1" connect="1" arrows="1" fold="1" page="1" pageScale="1" pageWidth="850" pageHeight="1100" math="0" shadow="0">
            <root>
                <mxCell id="0"/>
                <mxCell id="1" parent="0"/>
                <mxCell id="4" value="" style="edgeStyle=orthogonalEdgeStyle;html=1;" parent="1" source="2" target="3" edge="1">
                    <mxGeometry relative="1" as="geometry">
                        <Array as="points">
                            <mxPoint x="240" y="140"/>
                        </Array>
                    </mxGeometry>
                </mxCell>
                <mxCell id="17" style="edgeStyle=orthogonalEdgeStyle;html=1;exitX=0.5;exitY=1;exitDx=0;exitDy=0;entryX=0.5;entryY=0;entryDx=0;entryDy=0;" parent="1" source="2" target="5" edge="1">
                    <mxGeometry relative="1" as="geometry"/>
                </mxCell>
                <mxCell id="2" value="Deploy Caramelo Token&amp;nbsp;" style="rounded=1;whiteSpace=wrap;html=1;" parent="1" vertex="1">
                    <mxGeometry x="180" y="200" width="120" height="60" as="geometry"/>
                </mxCell>
                <mxCell id="3" value="&lt;div style=&quot;color: rgb(214, 214, 221); background-color: rgb(24, 24, 24); font-family: Menlo, Monaco, &amp;quot;Courier New&amp;quot;, monospace; line-height: 18px;&quot;&gt;&lt;span style=&quot;color: #efb080;&quot;&gt;initializeTokenomics()&lt;/span&gt;&lt;/div&gt;" style="rounded=1;whiteSpace=wrap;html=1;" parent="1" vertex="1">
                    <mxGeometry x="470" y="110" width="180" height="60" as="geometry"/>
                </mxCell>
                <mxCell id="5" value="Params" style="swimlane;whiteSpace=wrap;html=1;" parent="1" vertex="1">
                    <mxGeometry x="120" y="310" width="240" height="200" as="geometry"/>
                </mxCell>
                <mxCell id="7" value="* name" style="text;html=1;align=center;verticalAlign=middle;resizable=0;points=[];autosize=1;strokeColor=none;fillColor=none;" parent="5" vertex="1">
                    <mxGeometry x="-5" y="25" width="60" height="30" as="geometry"/>
                </mxCell>
                <mxCell id="8" value="&amp;nbsp; &amp;nbsp; *&amp;nbsp;&lt;span style=&quot;background-color: rgb(24, 24, 24); color: rgb(214, 214, 221); font-family: Menlo, Monaco, &amp;quot;Courier New&amp;quot;, monospace;&quot;&gt;symbol&lt;/span&gt;" style="text;html=1;align=center;verticalAlign=middle;resizable=0;points=[];autosize=1;strokeColor=none;fillColor=none;" parent="5" vertex="1">
                    <mxGeometry x="-20" y="45" width="90" height="30" as="geometry"/>
                </mxCell>
                <mxCell id="9" value="*&amp;nbsp;&lt;span style=&quot;background-color: rgb(24, 24, 24); color: rgb(214, 214, 221); font-family: Menlo, Monaco, &amp;quot;Courier New&amp;quot;, monospace;&quot;&gt;initialSupply&lt;/span&gt;" style="text;html=1;align=center;verticalAlign=middle;resizable=0;points=[];autosize=1;strokeColor=none;fillColor=none;" parent="5" vertex="1">
                    <mxGeometry x="-5" y="65" width="130" height="30" as="geometry"/>
                </mxCell>
                <mxCell id="10" value="&amp;nbsp; *&amp;nbsp;&lt;span style=&quot;background-color: rgb(24, 24, 24); color: rgb(214, 214, 221); font-family: Menlo, Monaco, &amp;quot;Courier New&amp;quot;, monospace;&quot;&gt;decimals&lt;/span&gt;" style="text;html=1;align=center;verticalAlign=middle;resizable=0;points=[];autosize=1;strokeColor=none;fillColor=none;" parent="5" vertex="1">
                    <mxGeometry x="-10" y="85" width="100" height="30" as="geometry"/>
                </mxCell>
                <mxCell id="11" value="*&amp;nbsp;&lt;span style=&quot;background-color: rgb(24, 24, 24); color: rgb(214, 214, 221); font-family: Menlo, Monaco, &amp;quot;Courier New&amp;quot;, monospace;&quot;&gt;taxFee&lt;/span&gt;" style="text;html=1;align=center;verticalAlign=middle;resizable=0;points=[];autosize=1;strokeColor=none;fillColor=none;" parent="5" vertex="1">
                    <mxGeometry y="105" width="70" height="30" as="geometry"/>
                </mxCell>
                <mxCell id="12" value="&amp;nbsp; *&amp;nbsp;&lt;span style=&quot;background-color: rgb(24, 24, 24); color: rgb(214, 214, 221); font-family: Menlo, Monaco, &amp;quot;Courier New&amp;quot;, monospace;&quot;&gt;liquidityFee&lt;/span&gt;" style="text;html=1;align=center;verticalAlign=middle;resizable=0;points=[];autosize=1;strokeColor=none;fillColor=none;" parent="5" vertex="1">
                    <mxGeometry x="-5" y="125" width="120" height="30" as="geometry"/>
                </mxCell>
                <mxCell id="13" value="*&amp;nbsp;&lt;span style=&quot;background-color: rgb(24, 24, 24); color: rgb(214, 214, 221); font-family: Menlo, Monaco, &amp;quot;Courier New&amp;quot;, monospace;&quot;&gt;maxTokensTXAmount&lt;/span&gt;" style="text;html=1;align=center;verticalAlign=middle;resizable=0;points=[];autosize=1;strokeColor=none;fillColor=none;" parent="5" vertex="1">
                    <mxGeometry y="145" width="150" height="30" as="geometry"/>
                </mxCell>
                <mxCell id="14" value="*&amp;nbsp;&lt;span style=&quot;background-color: rgb(24, 24, 24); color: rgb(214, 214, 221); font-family: Menlo, Monaco, &amp;quot;Courier New&amp;quot;, monospace;&quot;&gt;numTokensSellToAddToLiquidity&lt;/span&gt;" style="text;html=1;align=center;verticalAlign=middle;resizable=0;points=[];autosize=1;strokeColor=none;fillColor=none;" parent="5" vertex="1">
                    <mxGeometry y="165" width="240" height="30" as="geometry"/>
                </mxCell>
                <mxCell id="23" value="Numeros de tokens para ativar Swap_and_Liquify" style="rounded=0;whiteSpace=wrap;html=1;" parent="1" vertex="1">
                    <mxGeometry x="440" y="280" width="120" height="60" as="geometry"/>
                </mxCell>
                <mxCell id="24" value="Numero tokens maximo permitido para transfer" style="rounded=0;whiteSpace=wrap;html=1;" parent="1" vertex="1">
                    <mxGeometry x="440" y="350" width="120" height="60" as="geometry"/>
                </mxCell>
                <mxCell id="25" value="Fees" style="rounded=0;whiteSpace=wrap;html=1;" parent="1" vertex="1">
                    <mxGeometry x="440" y="420" width="120" height="60" as="geometry"/>
                </mxCell>
                <mxCell id="26" value="Fornecimento Maximo" style="rounded=0;whiteSpace=wrap;html=1;" parent="1" vertex="1">
                    <mxGeometry x="440" y="490" width="120" height="60" as="geometry"/>
                </mxCell>
                <mxCell id="28" style="edgeStyle=orthogonalEdgeStyle;html=1;entryX=0;entryY=0.5;entryDx=0;entryDy=0;fillColor=#d80073;strokeColor=#A50040;strokeWidth=2;" parent="1" source="13" target="24" edge="1">
                    <mxGeometry relative="1" as="geometry">
                        <Array as="points">
                            <mxPoint x="320" y="470"/>
                            <mxPoint x="320" y="380"/>
                        </Array>
                    </mxGeometry>
                </mxCell>
                <mxCell id="29" style="edgeStyle=orthogonalEdgeStyle;html=1;entryX=0;entryY=0.5;entryDx=0;entryDy=0;fillColor=#d80073;strokeColor=#A50040;strokeWidth=2;" parent="1" source="14" target="23" edge="1">
                    <mxGeometry relative="1" as="geometry">
                        <mxPoint x="370" y="490" as="sourcePoint"/>
                        <mxPoint x="450" y="390" as="targetPoint"/>
                        <Array as="points">
                            <mxPoint x="390" y="490"/>
                            <mxPoint x="390" y="310"/>
                        </Array>
                    </mxGeometry>
                </mxCell>
                <mxCell id="30" style="edgeStyle=orthogonalEdgeStyle;html=1;entryX=0;entryY=0.5;entryDx=0;entryDy=0;strokeWidth=2;fillColor=#bac8d3;strokeColor=#23445d;" parent="1" source="11" target="25" edge="1">
                    <mxGeometry relative="1" as="geometry">
                        <Array as="points">
                            <mxPoint x="290" y="430"/>
                            <mxPoint x="290" y="450"/>
                        </Array>
                    </mxGeometry>
                </mxCell>
                <mxCell id="31" style="edgeStyle=orthogonalEdgeStyle;html=1;entryX=0;entryY=0.5;entryDx=0;entryDy=0;strokeWidth=2;fillColor=#bac8d3;strokeColor=#23445d;" parent="1" source="12" target="25" edge="1">
                    <mxGeometry relative="1" as="geometry"/>
                </mxCell>
                <mxCell id="32" style="edgeStyle=orthogonalEdgeStyle;html=1;entryX=0;entryY=0.75;entryDx=0;entryDy=0;strokeWidth=2;fillColor=#b0e3e6;strokeColor=#0e8088;" parent="1" source="9" target="26" edge="1">
                    <mxGeometry relative="1" as="geometry">
                        <Array as="points">
                            <mxPoint x="400" y="390"/>
                            <mxPoint x="400" y="535"/>
                        </Array>
                    </mxGeometry>
                </mxCell>
                <mxCell id="46" value="" style="edgeStyle=orthogonalEdgeStyle;html=1;strokeWidth=2;exitX=1;exitY=0.5;exitDx=0;exitDy=0;" parent="1" source="3" target="45" edge="1">
                    <mxGeometry relative="1" as="geometry">
                        <mxPoint x="970" y="140" as="sourcePoint"/>
                    </mxGeometry>
                </mxCell>
                <mxCell id="58" style="edgeStyle=none;html=1;exitX=0.5;exitY=1;exitDx=0;exitDy=0;entryX=0.443;entryY=-0.024;entryDx=0;entryDy=0;entryPerimeter=0;" edge="1" parent="1" source="45" target="47">
                    <mxGeometry relative="1" as="geometry"/>
                </mxCell>
                <mxCell id="60" value="" style="edgeStyle=none;html=1;exitX=1;exitY=0.5;exitDx=0;exitDy=0;" edge="1" parent="1" source="45" target="59">
                    <mxGeometry relative="1" as="geometry">
                        <Array as="points">
                            <mxPoint x="1310" y="140"/>
                        </Array>
                    </mxGeometry>
                </mxCell>
                <mxCell id="45" value="&lt;div style=&quot;background-color: rgb(24, 24, 24); font-family: Menlo, Monaco, &amp;quot;Courier New&amp;quot;, monospace; line-height: 18px;&quot;&gt;&lt;div style=&quot;line-height: 18px;&quot;&gt;&lt;font color=&quot;#efefef&quot;&gt;Deploy CarameloPreSale&lt;/font&gt;&lt;/div&gt;&lt;/div&gt;" style="rounded=1;whiteSpace=wrap;html=1;strokeColor=#FFFFFF;" parent="1" vertex="1">
                    <mxGeometry x="910" y="110" width="190" height="60" as="geometry"/>
                </mxCell>
                <mxCell id="47" value="Params" style="swimlane;whiteSpace=wrap;html=1;" parent="1" vertex="1">
                    <mxGeometry x="900" y="200" width="240" height="200" as="geometry"/>
                </mxCell>
                <mxCell id="48" value="* Caramelo Contract Address" style="text;html=1;align=center;verticalAlign=middle;resizable=0;points=[];autosize=1;strokeColor=none;fillColor=none;" parent="47" vertex="1">
                    <mxGeometry y="25" width="180" height="30" as="geometry"/>
                </mxCell>
                <mxCell id="49" value="* RatePhase 1 (Qntde Tokens per BNB)" style="text;html=1;align=center;verticalAlign=middle;resizable=0;points=[];autosize=1;strokeColor=none;fillColor=none;" parent="47" vertex="1">
                    <mxGeometry x="5" y="50" width="230" height="30" as="geometry"/>
                </mxCell>
                <mxCell id="54" value="* RatePhase 2 (Qntde Tokens per BNB)" style="text;html=1;align=center;verticalAlign=middle;resizable=0;points=[];autosize=1;strokeColor=none;fillColor=none;" vertex="1" parent="47">
                    <mxGeometry x="5" y="80" width="230" height="30" as="geometry"/>
                </mxCell>
                <mxCell id="55" value="* RatePhase 3 (Qntde Tokens per BNB)" style="text;html=1;align=center;verticalAlign=middle;resizable=0;points=[];autosize=1;strokeColor=none;fillColor=none;" vertex="1" parent="47">
                    <mxGeometry x="5" y="110" width="230" height="30" as="geometry"/>
                </mxCell>
                <mxCell id="56" value="*&amp;nbsp;&lt;span style=&quot;color: rgb(214, 214, 221); font-family: Menlo, Monaco, &amp;quot;Courier New&amp;quot;, monospace; text-align: left; background-color: rgb(24, 24, 24);&quot;&gt;tokensAvailable&lt;/span&gt;" style="text;html=1;align=center;verticalAlign=middle;resizable=0;points=[];autosize=1;strokeColor=none;fillColor=none;" vertex="1" parent="47">
                    <mxGeometry x="5" y="140" width="140" height="30" as="geometry"/>
                </mxCell>
                <mxCell id="57" value="* MaxTokensBuy" style="text;html=1;align=center;verticalAlign=middle;resizable=0;points=[];autosize=1;strokeColor=none;fillColor=none;" vertex="1" parent="47">
                    <mxGeometry x="5" y="170" width="110" height="30" as="geometry"/>
                </mxCell>
                <mxCell id="62" value="" style="edgeStyle=none;html=1;fontColor=#6EEF8C;" edge="1" parent="1" source="59" target="61">
                    <mxGeometry relative="1" as="geometry"/>
                </mxCell>
                <mxCell id="59" value="&lt;div style=&quot;background-color: rgb(24, 24, 24); font-family: Menlo, Monaco, &amp;quot;Courier New&amp;quot;, monospace; line-height: 18px;&quot;&gt;&lt;div style=&quot;line-height: 18px;&quot;&gt;&lt;div style=&quot;line-height: 18px;&quot;&gt;&lt;span style=&quot;color: rgb(239, 176, 128);&quot;&gt;excludeFromFee(&lt;/span&gt;&lt;font color=&quot;#6eef8c&quot;&gt;CarameloPreSaleAddress&lt;/font&gt;&lt;span style=&quot;color: rgb(239, 176, 128);&quot;&gt;)&lt;/span&gt;&lt;/div&gt;&lt;/div&gt;&lt;/div&gt;" style="rounded=1;whiteSpace=wrap;html=1;" vertex="1" parent="1">
                    <mxGeometry x="1160" y="-30" width="290" height="60" as="geometry"/>
                </mxCell>
                <mxCell id="64" value="" style="edgeStyle=none;html=1;fontColor=#6EEF8C;" edge="1" parent="1" source="61" target="63">
                    <mxGeometry relative="1" as="geometry"/>
                </mxCell>
                <mxCell id="61" value="&lt;div style=&quot;background-color: rgb(24, 24, 24); font-family: Menlo, Monaco, &amp;quot;Courier New&amp;quot;, monospace; line-height: 18px;&quot;&gt;&lt;div style=&quot;line-height: 18px;&quot;&gt;&lt;div style=&quot;line-height: 18px;&quot;&gt;&lt;span style=&quot;color: rgb(239, 176, 128);&quot;&gt;excludeFromFee(&lt;/span&gt;&lt;font color=&quot;#6eef8c&quot;&gt;PreSaleWallet&lt;/font&gt;&lt;span style=&quot;color: rgb(239, 176, 128);&quot;&gt;)&lt;/span&gt;&lt;/div&gt;&lt;/div&gt;&lt;/div&gt;" style="rounded=1;whiteSpace=wrap;html=1;" vertex="1" parent="1">
                    <mxGeometry x="790" y="-30" width="290" height="60" as="geometry"/>
                </mxCell>
                <mxCell id="66" value="" style="edgeStyle=none;html=1;fontColor=#00DD3B;" edge="1" parent="1" source="63" target="65">
                    <mxGeometry relative="1" as="geometry"/>
                </mxCell>
                <mxCell id="63" value="&lt;div style=&quot;background-color: rgb(24, 24, 24); font-family: Menlo, Monaco, &amp;quot;Courier New&amp;quot;, monospace; line-height: 18px;&quot;&gt;&lt;div style=&quot;line-height: 18px;&quot;&gt;&lt;div style=&quot;line-height: 18px;&quot;&gt;&lt;font color=&quot;#efb080&quot;&gt;Caramelo.transfer(&lt;/font&gt;&lt;span style=&quot;color: rgb(110, 239, 140);&quot;&gt;PreSaleWallet,&amp;nbsp;&lt;/span&gt;&lt;span style=&quot;text-align: left;&quot;&gt;&lt;font color=&quot;#00dd3b&quot;&gt;tokensAvailable&lt;/font&gt;&lt;/span&gt;&lt;span style=&quot;color: rgb(110, 239, 140);&quot;&gt;&amp;nbsp;&lt;/span&gt;&lt;span style=&quot;color: rgb(239, 176, 128);&quot;&gt;)&lt;/span&gt;&lt;/div&gt;&lt;/div&gt;&lt;/div&gt;" style="rounded=1;whiteSpace=wrap;html=1;" vertex="1" parent="1">
                    <mxGeometry x="330" y="-30" width="380" height="60" as="geometry"/>
                </mxCell>
                <mxCell id="68" value="" style="edgeStyle=none;html=1;fontColor=#00DD3B;" edge="1" parent="1" source="65" target="67">
                    <mxGeometry relative="1" as="geometry"/>
                </mxCell>
                <mxCell id="65" value="&lt;div style=&quot;background-color: rgb(24, 24, 24); font-family: Menlo, Monaco, &amp;quot;Courier New&amp;quot;, monospace; line-height: 18px;&quot;&gt;&lt;div style=&quot;line-height: 18px;&quot;&gt;&lt;div style=&quot;line-height: 18px;&quot;&gt;&lt;div style=&quot;color: rgb(214, 214, 221); line-height: 18px;&quot;&gt;&lt;span style=&quot;color: #efb080;&quot;&gt;initializePreSale()&lt;/span&gt;&lt;/div&gt;&lt;/div&gt;&lt;/div&gt;&lt;/div&gt;" style="rounded=1;whiteSpace=wrap;html=1;" vertex="1" parent="1">
                    <mxGeometry x="330" y="-180" width="380" height="60" as="geometry"/>
                </mxCell>
                <mxCell id="70" value="" style="edgeStyle=none;html=1;fontColor=#00EF38;" edge="1" parent="1" source="67" target="69">
                    <mxGeometry relative="1" as="geometry"/>
                </mxCell>
                <mxCell id="83" style="edgeStyle=orthogonalEdgeStyle;curved=1;html=1;entryX=1;entryY=0.5;entryDx=0;entryDy=0;fontColor=#00EF38;" edge="1" parent="1" source="81" target="69">
                    <mxGeometry relative="1" as="geometry">
                        <Array as="points">
                            <mxPoint x="970" y="-400"/>
                            <mxPoint x="850" y="-400"/>
                            <mxPoint x="850" y="-430"/>
                        </Array>
                    </mxGeometry>
                </mxCell>
                <mxCell id="67" value="&lt;div style=&quot;background-color: rgb(24, 24, 24); font-family: Menlo, Monaco, &amp;quot;Courier New&amp;quot;, monospace; line-height: 18px;&quot;&gt;&lt;div style=&quot;line-height: 18px;&quot;&gt;&lt;div style=&quot;line-height: 18px;&quot;&gt;&lt;div style=&quot;line-height: 18px;&quot;&gt;&lt;span style=&quot;color: rgb(239, 176, 128);&quot;&gt;addMultipleToWhitelist([&lt;/span&gt;&lt;span style=&quot;color: rgb(0, 239, 56);&quot;&gt;userWallet1,&amp;nbsp;&lt;/span&gt;&lt;span style=&quot;color: rgb(0, 239, 56);&quot;&gt;userWallet2,&amp;nbsp;&lt;/span&gt;&lt;span style=&quot;color: rgb(0, 239, 56);&quot;&gt;userWallet3, ...&lt;/span&gt;&lt;span style=&quot;color: rgb(239, 176, 128);&quot;&gt;]&lt;/span&gt;&lt;span style=&quot;color: rgb(239, 176, 128);&quot;&gt;)&lt;/span&gt;&lt;/div&gt;&lt;/div&gt;&lt;/div&gt;&lt;/div&gt;" style="rounded=1;whiteSpace=wrap;html=1;" vertex="1" parent="1">
                    <mxGeometry x="260" y="-320" width="520" height="60" as="geometry"/>
                </mxCell>
                <mxCell id="72" style="edgeStyle=none;html=1;entryX=0.517;entryY=1.01;entryDx=0;entryDy=0;entryPerimeter=0;fontColor=#00EF38;" edge="1" parent="1" source="69" target="71">
                    <mxGeometry relative="1" as="geometry"/>
                </mxCell>
                <mxCell id="79" style="edgeStyle=orthogonalEdgeStyle;curved=1;html=1;entryX=1;entryY=0.5;entryDx=0;entryDy=0;fontColor=#00EF38;exitX=0.433;exitY=1.08;exitDx=0;exitDy=0;exitPerimeter=0;" edge="1" parent="1" source="82" target="71">
                    <mxGeometry relative="1" as="geometry">
                        <Array as="points">
                            <mxPoint x="938" y="-548"/>
                            <mxPoint x="938" y="-500"/>
                            <mxPoint x="840" y="-500"/>
                            <mxPoint x="840" y="-580"/>
                        </Array>
                    </mxGeometry>
                </mxCell>
                <mxCell id="69" value="&lt;div style=&quot;background-color: rgb(24, 24, 24); font-family: Menlo, Monaco, &amp;quot;Courier New&amp;quot;, monospace; line-height: 18px;&quot;&gt;&lt;div style=&quot;line-height: 18px;&quot;&gt;&lt;div style=&quot;line-height: 18px;&quot;&gt;&lt;div style=&quot;line-height: 18px;&quot;&gt;&lt;div style=&quot;color: rgb(214, 214, 221); line-height: 18px;&quot;&gt;&lt;span style=&quot;color: #efb080;&quot;&gt;updatePhase(&lt;/span&gt;&lt;span style=&quot;&quot;&gt;Phase.Phase2&lt;/span&gt;&lt;span style=&quot;color: rgb(239, 176, 128);&quot;&gt;)&lt;/span&gt;&lt;/div&gt;&lt;/div&gt;&lt;/div&gt;&lt;/div&gt;&lt;/div&gt;" style="rounded=1;whiteSpace=wrap;html=1;" vertex="1" parent="1">
                    <mxGeometry x="260" y="-460" width="520" height="60" as="geometry"/>
                </mxCell>
                <mxCell id="74" style="edgeStyle=none;html=1;entryX=0.5;entryY=1;entryDx=0;entryDy=0;fontColor=#00EF38;" edge="1" parent="1" source="71" target="73">
                    <mxGeometry relative="1" as="geometry"/>
                </mxCell>
                <mxCell id="80" style="edgeStyle=orthogonalEdgeStyle;curved=1;html=1;entryX=1;entryY=0.5;entryDx=0;entryDy=0;fontColor=#00EF38;" edge="1" parent="1" source="84" target="73">
                    <mxGeometry relative="1" as="geometry">
                        <Array as="points">
                            <mxPoint x="945" y="-650"/>
                            <mxPoint x="860" y="-650"/>
                            <mxPoint x="860" y="-710"/>
                        </Array>
                    </mxGeometry>
                </mxCell>
                <mxCell id="71" value="&lt;div style=&quot;background-color: rgb(24, 24, 24); font-family: Menlo, Monaco, &amp;quot;Courier New&amp;quot;, monospace; line-height: 18px;&quot;&gt;&lt;div style=&quot;line-height: 18px;&quot;&gt;&lt;div style=&quot;line-height: 18px;&quot;&gt;&lt;div style=&quot;line-height: 18px;&quot;&gt;&lt;div style=&quot;color: rgb(214, 214, 221); line-height: 18px;&quot;&gt;&lt;span style=&quot;color: #efb080;&quot;&gt;updatePhase(&lt;/span&gt;&lt;span style=&quot;&quot;&gt;Phase.Phase3&lt;/span&gt;&lt;span style=&quot;color: rgb(239, 176, 128);&quot;&gt;)&lt;/span&gt;&lt;/div&gt;&lt;/div&gt;&lt;/div&gt;&lt;/div&gt;&lt;/div&gt;" style="rounded=1;whiteSpace=wrap;html=1;fontColor=#00EF38;" vertex="1" parent="1">
                    <mxGeometry x="250" y="-610" width="520" height="60" as="geometry"/>
                </mxCell>
                <mxCell id="91" style="edgeStyle=orthogonalEdgeStyle;curved=1;html=1;entryX=0.5;entryY=1;entryDx=0;entryDy=0;fontColor=#00EF38;" edge="1" parent="1" source="73" target="88">
                    <mxGeometry relative="1" as="geometry"/>
                </mxCell>
                <mxCell id="73" value="&lt;div style=&quot;background-color: rgb(24, 24, 24); font-family: Menlo, Monaco, &amp;quot;Courier New&amp;quot;, monospace; line-height: 18px;&quot;&gt;&lt;div style=&quot;line-height: 18px;&quot;&gt;&lt;div style=&quot;line-height: 18px;&quot;&gt;&lt;div style=&quot;line-height: 18px;&quot;&gt;&lt;div style=&quot;color: rgb(214, 214, 221); line-height: 18px;&quot;&gt;&lt;span style=&quot;color: #efb080;&quot;&gt;updatePhase(&lt;/span&gt;&lt;span style=&quot;&quot;&gt;Phase.End&lt;/span&gt;&lt;span style=&quot;color: rgb(239, 176, 128);&quot;&gt;)&lt;/span&gt;&lt;/div&gt;&lt;/div&gt;&lt;/div&gt;&lt;/div&gt;&lt;/div&gt;" style="rounded=1;whiteSpace=wrap;html=1;fontColor=#00EF38;" vertex="1" parent="1">
                    <mxGeometry x="250" y="-740" width="520" height="60" as="geometry"/>
                </mxCell>
                <mxCell id="81" value="Atualiza Fase 2 da Pre venda" style="text;html=1;align=center;verticalAlign=middle;resizable=0;points=[];autosize=1;strokeColor=none;fillColor=none;fontColor=#00EF38;" vertex="1" parent="1">
                    <mxGeometry x="870" y="-460" width="180" height="30" as="geometry"/>
                </mxCell>
                <mxCell id="82" value="Atualiza Fase 3 da Pre venda" style="text;html=1;align=center;verticalAlign=middle;resizable=0;points=[];autosize=1;strokeColor=none;fillColor=none;fontColor=#00EF38;" vertex="1" parent="1">
                    <mxGeometry x="870" y="-580" width="180" height="30" as="geometry"/>
                </mxCell>
                <mxCell id="84" value="Finaliza a Pre venda" style="text;html=1;align=center;verticalAlign=middle;resizable=0;points=[];autosize=1;strokeColor=none;fillColor=none;fontColor=#00EF38;" vertex="1" parent="1">
                    <mxGeometry x="910" y="-740" width="130" height="30" as="geometry"/>
                </mxCell>
                <mxCell id="85" value="SWAP PancakeSwap" style="ellipse;whiteSpace=wrap;html=1;fontColor=#00EF38;rounded=1;" vertex="1" parent="1">
                    <mxGeometry x="430" y="-1110" width="140" height="110" as="geometry"/>
                </mxCell>
                <mxCell id="87" style="edgeStyle=orthogonalEdgeStyle;html=1;entryX=-0.006;entryY=0.253;entryDx=0;entryDy=0;entryPerimeter=0;strokeWidth=2;" edge="1" parent="1" source="88" target="90">
                    <mxGeometry relative="1" as="geometry"/>
                </mxCell>
                <mxCell id="92" style="edgeStyle=orthogonalEdgeStyle;curved=1;html=1;entryX=0.5;entryY=1;entryDx=0;entryDy=0;fontColor=#00EF38;" edge="1" parent="1" source="88" target="85">
                    <mxGeometry relative="1" as="geometry"/>
                </mxCell>
                <mxCell id="88" value="&lt;div style=&quot;color: rgb(214, 214, 221); background-color: rgb(24, 24, 24); font-family: Menlo, Monaco, &amp;quot;Courier New&amp;quot;, monospace; line-height: 18px;&quot;&gt;&lt;div style=&quot;line-height: 18px;&quot;&gt;&lt;span style=&quot;color: #efb080;&quot;&gt;configureSwapProtocol&lt;/span&gt;&lt;/div&gt;&lt;/div&gt;" style="rounded=1;whiteSpace=wrap;html=1;" vertex="1" parent="1">
                    <mxGeometry x="450" y="-910" width="170" height="60" as="geometry"/>
                </mxCell>
                <mxCell id="89" value="Params" style="swimlane;whiteSpace=wrap;html=1;" vertex="1" parent="1">
                    <mxGeometry x="800" y="-920" width="240" height="60" as="geometry"/>
                </mxCell>
                <mxCell id="90" value="routerAddress" style="text;html=1;align=center;verticalAlign=middle;resizable=0;points=[];autosize=1;strokeColor=none;fillColor=none;" vertex="1" parent="89">
                    <mxGeometry y="15" width="100" height="30" as="geometry"/>
                </mxCell>
            </root>
        </mxGraphModel>
    </diagram>
</mxfile>